<svg xmlns="http://www.w3.org/2000/svg" width="26" height="26" fill="none">
	<path fill="#002851"
		d="M17.593 2.166H8.407c-2.99 0-4.074 1.083-4.074 4.128v13.411c0 3.044 1.084 4.128 4.074 4.128h9.176c3 0 4.084-1.084 4.084-4.128V6.294c0-3.045-1.084-4.128-4.074-4.128ZM13 20.908a1.905 1.905 0 0 1-1.896-1.896c0-1.04.856-1.896 1.896-1.896s1.896.856 1.896 1.896-.856 1.896-1.896 1.896ZM15.167 6.77h-4.333a.818.818 0 0 1-.813-.812c0-.444.368-.813.813-.813h4.333c.444 0 .812.369.812.813a.818.818 0 0 1-.812.812Z" />
	<path fill="#002851"
		d="M17.593 2.166H8.407c-2.99 0-4.074 1.083-4.074 4.128v13.411c0 3.044 1.084 4.128 4.074 4.128h9.176c3 0 4.084-1.084 4.084-4.128V6.294c0-3.045-1.084-4.128-4.074-4.128ZM13 20.908a1.905 1.905 0 0 1-1.896-1.896c0-1.04.856-1.896 1.896-1.896s1.896.856 1.896 1.896-.856 1.896-1.896 1.896ZM15.167 6.77h-4.333a.818.818 0 0 1-.813-.812c0-.444.368-.813.813-.813h4.333c.444 0 .812.369.812.813a.818.818 0 0 1-.812.812Z" />
	<defs>
		<radialGradient id="a" cx="0" cy="0" r="1"
			gradientTransform="rotate(128.66 9.094 6.746) scale(23.845 17.561)"
			gradientUnits="userSpaceOnUse">
			<stop stop-color="#FF9937" />
			<stop offset=".895" stop-color="#FE6A2E" />
		</radialGradient>
	</defs>
</svg>