<svg xmlns="http://www.w3.org/2000/svg" viewBox="0 0 50 50" width="50px" height="50px">
    <path
        fill="#002851"
        d="M 11 7 C 5.488281 7 1 11.488281 1 17 C 1 20.25 2.589844 23.113281 5 24.9375 L 5 25 C 5 26.292969 5.84375 27.394531 7 27.8125 L 7 40 C 6.992188 40.265625 7.09375 40.527344 7.28125 40.71875 L 9.28125 42.71875 C 9.472656 42.90625 9.734375 43.007813 10 43 L 12 43 C 12.265625 43.007813 12.527344 42.90625 12.71875 42.71875 L 14.71875 40.71875 C 14.90625 40.527344 15.007813 40.265625 15 40 L 15 27.8125 C 16.15625 27.394531 17 26.292969 17 25 L 17 24.9375 C 19.410156 23.113281 21 20.25 21 17 C 21 11.488281 16.511719 7 11 7 Z M 11 9 C 15.429688 9 19 12.570313 19 17 C 19 19.78125 17.582031 22.222656 15.4375 23.65625 C 15.167969 23.839844 15.003906 24.144531 15 24.46875 L 15 25 C 15 25.566406 14.566406 26 14 26 L 8 26 C 7.433594 26 7 25.566406 7 25 L 7 24.46875 C 6.996094 24.144531 6.832031 23.839844 6.5625 23.65625 C 4.417969 22.222656 3 19.78125 3 17 C 3 12.570313 6.570313 9 11 9 Z M 11 11 C 7.699219 11 5 13.699219 5 17 C 5 17.550781 5.449219 18 6 18 L 16 18 C 16.550781 18 17 17.550781 17 17 C 17 13.699219 14.300781 11 11 11 Z M 24.8125 12 C 24.335938 12.089844 23.992188 12.511719 24 13 L 24 21 C 24 21.550781 24.449219 22 25 22 L 47 22 C 47.550781 22 48 21.550781 48 21 L 48 13 C 48 12.449219 47.550781 12 47 12 L 25 12 C 24.96875 12 24.9375 12 24.90625 12 C 24.875 12 24.84375 12 24.8125 12 Z M 11 13 C 12.867188 13 14.363281 14.28125 14.8125 16 L 7.1875 16 C 7.636719 14.28125 9.132813 13 11 13 Z M 26 14 L 46 14 L 46 20 L 26 20 Z M 9 28 L 13 28 L 13 31 L 12 31 L 12 33 L 13 33 L 13 36 L 12 36 L 12 38 L 13 38 L 13 39.5625 L 11.5625 41 L 10.4375 41 L 9 39.5625 Z M 24.8125 28 C 24.335938 28.089844 23.992188 28.511719 24 29 L 24 37 C 24 37.550781 24.449219 38 25 38 L 47 38 C 47.550781 38 48 37.550781 48 37 L 48 29 C 48 28.449219 47.550781 28 47 28 L 25 28 C 24.96875 28 24.9375 28 24.90625 28 C 24.875 28 24.84375 28 24.8125 28 Z M 26 30 L 46 30 L 46 36 L 26 36 Z" />
</svg>