<svg xmlns="http://www.w3.org/2000/svg" width="30" height="30" fill="none">
	<path fill="#002851" fill-rule="evenodd"
		d="M23.61 7.868c-1.965-1.965-3.89-2.016-5.905 0L16.48 9.093c-.102.101-.142.264-.102.405A8.233 8.233 0 0 0 21.98 15.1a.406.406 0 0 0 .415-.101l1.216-1.226c1.003-.992 1.489-1.954 1.489-2.927.01-1.002-.476-1.975-1.49-2.977Zm2.005 18.757H7.385a.765.765 0 0 1-.76-.76c0-.415.344-.76.76-.76h18.23c.416 0 .76.345.76.76 0 .416-.344.76-.76.76Zm-6.31-11.05c.274.162.558.304.852.445l.098.043c.35.15.452.612.182.882l-5.78 5.78c-.121.132-.375.253-.557.284l-3.89.547a2.21 2.21 0 0 1-.364.03c-.547 0-1.053-.192-1.418-.547-.425-.435-.618-1.084-.516-1.772l.547-3.88c.03-.172.151-.425.283-.556l5.788-5.788c.268-.268.719-.167.873.18l.054.118c.142.284.284.557.446.83.131.223.273.446.395.598.142.218.301.409.404.532a5.98 5.98 0 0 1 .062.078.81.81 0 0 0 .111.13c.334.405.709.77 1.043 1.053.081.08.152.142.172.152.193.162.395.324.568.435.212.152.425.294.648.426Z"
		clip-rule="evenodd" />
	<path fill="#002851" fill-rule="evenodd"
		d="M23.61 7.868c-1.965-1.965-3.89-2.016-5.905 0L16.48 9.093c-.102.101-.142.264-.102.405A8.233 8.233 0 0 0 21.98 15.1a.406.406 0 0 0 .415-.101l1.216-1.226c1.003-.992 1.489-1.954 1.489-2.927.01-1.002-.476-1.975-1.49-2.977Zm2.005 18.757H7.385a.765.765 0 0 1-.76-.76c0-.415.344-.76.76-.76h18.23c.416 0 .76.345.76.76 0 .416-.344.76-.76.76Zm-6.31-11.05c.274.162.558.304.852.445l.098.043c.35.15.452.612.182.882l-5.78 5.78c-.121.132-.375.253-.557.284l-3.89.547a2.21 2.21 0 0 1-.364.03c-.547 0-1.053-.192-1.418-.547-.425-.435-.618-1.084-.516-1.772l.547-3.88c.03-.172.151-.425.283-.556l5.788-5.788c.268-.268.719-.167.873.18l.054.118c.142.284.284.557.446.83.131.223.273.446.395.598.142.218.301.409.404.532a5.98 5.98 0 0 1 .062.078.81.81 0 0 0 .111.13c.334.405.709.77 1.043 1.053.081.08.152.142.172.152.193.162.395.324.568.435.212.152.425.294.648.426Z"
		clip-rule="evenodd" />
	<defs>
		<radialGradient id="a" cx="0" cy="0" r="1"
			gradientTransform="rotate(134.284 10.585 9.147) scale(24.3088 18.3444)"
			gradientUnits="userSpaceOnUse">
			<stop stop-color="#FF9937" />
			<stop offset=".895" stop-color="#FE6A2E" />
		</radialGradient>
	</defs>
</svg>