<svg xmlns="http://www.w3.org/2000/svg" viewBox="0 0 50 50" width="50px" height="50px">
    <path
        fill="#002851"
        d="M 25 4 C 23.003814 4 21.068367 4.2786922 19.236328 4.8007812 A 1.0002908 1.0002908 0 1 0 19.785156 6.7246094 C 21.441117 6.2526984 23.190186 6 25 6 C 35.505593 6 44 14.494407 44 25 A 1.0001 1.0001 0 1 0 46 25 C 46 13.413593 36.586407 4 25 4 z M 12.726562 5 C 7.9995625 5 6.6775781 7.9684531 7.7675781 11.689453 C 7.6185781 11.785453 7.3725937 12.094625 7.4335938 12.640625 C 7.5485938 13.658625 7.9414531 13.9155 8.1894531 13.9375 C 8.1894531 15.0775 9.3968438 16.225391 9.7148438 16.400391 L 9.7148438 18.337891 C 9.0448438 20.253891 5.0886406 19.940656 4.0566406 22.722656 C 3.8276406 23.342656 4.3204688 24 4.9804688 24 L 19.019531 24 C 19.680531 24 20.173359 23.342656 19.943359 22.722656 C 18.911359 19.940656 14.955156 20.252891 14.285156 18.337891 L 14.285156 16.400391 C 14.602156 16.223391 15.791016 15.031078 15.791016 13.955078 C 16.040016 13.934078 16.432875 13.67525 16.546875 12.65625 C 16.608875 12.10925 16.413891 11.765078 16.212891 11.705078 C 17.003891 9.2040781 16.570578 6 13.142578 6 L 12.726562 5 z M 38.726562 26 C 33.999562 26 32.677578 28.968453 33.767578 32.689453 C 33.618578 32.785453 33.372594 33.094625 33.433594 33.640625 C 33.548594 34.658625 33.941453 34.9155 34.189453 34.9375 C 34.189453 36.0775 35.396844 37.225391 35.714844 37.400391 L 35.714844 39.337891 C 35.044844 41.253891 31.088641 40.940656 30.056641 43.722656 C 29.827641 44.342656 30.320469 45 30.980469 45 L 45.019531 45 C 45.680531 45 46.173359 44.342656 45.943359 43.722656 C 44.911359 40.940656 40.955156 41.252891 40.285156 39.337891 L 40.285156 37.400391 C 40.602156 37.223391 41.791016 36.031078 41.791016 34.955078 C 42.040016 34.934078 42.432875 34.67525 42.546875 33.65625 C 42.608875 33.10925 42.413891 32.765078 42.212891 32.705078 C 43.003891 30.204078 42.570578 27 39.142578 27 L 38.726562 26 z M 5.28125 27.220703 A 1.0001 1.0001 0 0 0 4.2734375 28.396484 C 5.8979874 38.380063 14.569408 46 25 46 C 25.506464 46 26.009486 45.983006 26.507812 45.947266 A 1.0005918 1.0005918 0 0 0 26.365234 43.951172 C 25.915562 43.983427 25.459536 44 25 44 C 15.542592 44 7.7155437 37.10464 6.2460938 28.074219 A 1.0001 1.0001 0 0 0 5.28125 27.220703 z" />
</svg>